<svg width="50" height="50" viewBox="0 0 50 50" fill="none" xmlns="http://www.w3.org/2000/svg">
<path id="css" d="M38.0508 10.8437L12.946 10.8377L13.3515 15.7547L32.6381 15.7577L32.1519 20.8502H19.5035L19.9608 25.6742H31.7358L31.0392 32.2806L25.4969 33.7886L19.8663 32.2701L19.508 28.3134H14.5359L15.0877 35.5411L25.4969 38.7341L35.7309 35.8652L38.0493 10.8452L38.0508 10.8437ZM5.49844 2.56873H45.4984L41.86 42.9999L25.4542 47.5687L9.13993 42.9968L5.49844 2.56873Z" fill="#7572D5"/>
<g id="code"><path fill-rule="evenodd" clip-rule="evenodd" d="M18.3125 42.0645L27.2623 6.6875L31.4375 7.87241L22.4878 43.3125L18.3125 42.0645Z"/>
<path fill-rule="evenodd" clip-rule="evenodd" d="M13.5025 12.6875L16.5625 15.9278L7.99501 25.0001L16.5625 34.0721L13.5025 37.3125L1.875 25.0001L13.5025 12.6875Z" />
<path fill-rule="evenodd" clip-rule="evenodd" d="M36.4976 12.6875L33.4375 15.9278L42.0051 25.0001L33.4375 34.0721L36.4976 37.3125L48.125 25.0001L36.4976 12.6875Z" />
</g>
<g id="figma"><path d="M17.7083 4.16663C14.2565 4.16663 11.4583 6.96486 11.4583 10.4166C11.4583 13.8684 14.2565 16.6666 17.7083 16.6666H32.2916C35.7435 16.6666 38.5416 13.8684 38.5416 10.4166C38.5416 6.96486 35.7435 4.16663 32.2916 4.16663H17.7083Z" fill="#7572D5"/>
<path d="M32.2917 18.75C28.8398 18.75 26.0417 21.5481 26.0417 25C26.0417 28.4519 28.8398 31.25 32.2917 31.25C35.7436 31.25 38.5417 28.4519 38.5417 25C38.5417 21.5481 35.7436 18.75 32.2917 18.75Z" fill="#7572D5"/>
<path d="M11.4583 25C11.4583 21.5481 14.2565 18.75 17.7083 18.75H23.9583V31.25H17.7083C14.2565 31.25 11.4583 28.4519 11.4583 25Z" fill="#7572D5"/>
<path d="M17.7083 33.3334C14.2565 33.3334 11.4583 36.1315 11.4583 39.5834C11.4583 43.0352 14.2565 45.8334 17.7083 45.8334C21.1602 45.8334 23.9583 43.0352 23.9583 39.5834V33.3334H17.7083Z" fill="#7572D5"/>
</g>
<g id="styled-components"><path d="M37.2591 6.25L36.9888 7.64963C36.5708 10.3021 36.7221 11.061 37.8682 12.0454L38.9747 12.9546L37.8286 18.0305C37.1438 21.0588 36.3041 23.5968 35.7707 24.4308C35.313 25.1503 34.7796 26.2099 34.6642 26.7791C34.4732 27.4592 33.8245 28.1429 32.8334 28.7478C31.9576 29.2418 30.2385 30.5663 29.0203 31.6294C28.0472 32.4993 27.3769 33.0326 27.0129 33.2617L25.8235 34.196C25.4415 34.8046 25.2253 35.295 25.1424 35.6672C25.0595 36.0503 25.1063 36.3044 25.2289 36.4905C25.3478 36.6695 25.5532 36.7948 25.8343 36.8736C26.1671 36.951 26.5097 36.9788 26.8507 36.9559C27.6222 36.9035 28.3858 36.7691 29.1284 36.555C29.3807 36.487 29.5789 36.4225 29.7519 36.3653C30.0186 36.0395 30.6349 35.4238 31.7269 34.3535C34.6246 31.5149 35.731 29.9613 34.5885 30.3802C34.1669 30.5305 34.3579 30.1511 35.0823 29.3922C36.6104 27.9138 37.4862 25.6801 39.317 18.6748C40.7659 13.1443 40.7659 13.0656 41.8327 13.0656C42.3336 13.0656 43.75 13.1515 43.75 13.1515V6.25H40.4992H37.2591ZM24.4216 18.0806C23.3692 18.0735 21.1058 19.6664 14.3303 25.1611C14.0383 25.8519 14.0131 26.328 14.1464 26.6359C14.2329 26.8471 14.3915 26.9938 14.6114 27.1012C14.8276 27.2086 15.1087 27.2731 15.4187 27.2981C16.035 27.3518 16.763 27.2552 17.3504 27.1406L17.7469 27.0511C17.8826 26.8704 18.0608 26.7254 18.2659 26.6287C18.6839 26.3996 20.4391 24.8103 22.1943 23.1064C25.2829 19.9993 26.0073 18.5961 24.7495 18.1415C24.6463 18.1007 24.5326 18.08 24.4216 18.0806ZM32.336 20.2391C31.4098 20.2642 29.7411 21.3309 26.8831 23.5968C25.4487 24.753 24.5405 25.3759 24.0539 25.5047L22.1654 26.9867C21.4554 28.2753 21.3509 29.0736 21.5383 29.5139C21.5852 29.6225 21.6533 29.7208 21.7387 29.8031C21.8241 29.8855 21.925 29.9502 22.0357 29.9936C22.311 30.1015 22.6046 30.1562 22.9006 30.1546C23.608 30.1471 24.3112 30.0448 24.991 29.8504C25.3453 29.7559 25.6952 29.6461 26.0398 29.521L26.1443 29.4781L26.3353 29.3779C26.6957 28.9161 27.5246 28.0462 28.5626 27.044C31.8423 23.9011 33.5181 21.6674 33.1758 20.8333C33.0208 20.4288 32.7541 20.2248 32.336 20.2391ZM23.5998 24.1051C23.3331 24.1337 22.7349 24.5919 21.6573 25.5298C20.1003 26.8972 18.4028 27.6847 17.8154 27.3339C17.6788 27.3645 17.5419 27.3932 17.4045 27.4198C16.8062 27.5379 16.0602 27.6346 15.3934 27.5809C15.0793 27.562 14.7714 27.4855 14.4852 27.3554C14.2153 27.2328 13.9999 27.0164 13.8797 26.7468C13.7464 26.4247 13.7464 26.0238 13.8978 25.5119L11.5551 27.4234L6.2536 31.7798V38.8424L23.6251 25.2506C23.6217 25.1018 23.6411 24.9533 23.6827 24.8103C23.8161 24.3306 23.8089 24.0872 23.5998 24.1087V24.1051ZM31.0746 26.3925C30.8115 26.3925 30.3718 26.7612 29.669 27.5021C28.714 28.5152 27.2111 29.496 26.4146 29.6964L26.292 29.7609C26.1613 29.8145 26.0291 29.8646 25.8956 29.9112C25.6794 29.9828 25.3982 30.0687 25.0739 30.1546C24.4252 30.33 23.6179 30.4911 22.897 30.4732C22.5572 30.4728 22.2207 30.4072 21.9059 30.2799C21.6093 30.1585 21.3716 29.9275 21.2428 29.6356C21.0338 29.138 21.1167 28.44 21.5744 27.4485L6.25 39.4366V43.75H12.9823L27.2615 32.6103C27.6327 32.2022 28.1914 31.6438 28.9446 30.9457C30.9629 29.0879 31.4206 28.4472 31.4206 27.4986C31.4206 26.7612 31.3377 26.3889 31.0746 26.3889V26.3925ZM34.4732 33.3727L33.2514 34.5826C32.5667 35.2269 31.3449 36.0216 30.5088 36.3617L30.343 36.4333L30.3322 36.4512L30.2961 36.487C30.2637 36.512 30.2493 36.5156 30.2241 36.5263C29.8903 36.6518 29.5512 36.7629 29.2077 36.8592C28.4441 37.08 27.6586 37.218 26.8651 37.2709C26.4899 37.2948 26.1132 37.2622 25.7478 37.1743C25.4307 37.1049 25.1508 36.9213 24.9622 36.6588C24.7892 36.3939 24.7387 36.0395 24.836 35.6028C24.9134 35.2919 25.0284 34.9914 25.1784 34.7079L13.6563 43.75H28.9807L30.8115 41.6667C33.3271 38.7529 34.4732 36.6695 34.4732 34.8869V33.3727Z" fill="#7572D5"/></g>
<g id="typescript"><path d="M5 25V45H45V5H5V25ZM37.235 23.4067C38.2517 23.66 39.025 24.1117 39.7367 24.8483C40.105 25.2417 40.6517 25.9583 40.695 26.1317C40.7083 26.1817 38.9683 27.3483 37.915 28.0033C37.8767 28.0283 37.7233 27.8633 37.5533 27.61C37.0367 26.86 36.4983 26.5367 35.6733 26.48C34.46 26.3967 33.68 27.0317 33.6867 28.0917C33.6756 28.3523 33.7343 28.6112 33.8567 28.8417C34.1233 29.3933 34.62 29.725 36.1733 30.3967C39.0383 31.63 40.2633 32.4417 41.025 33.5967C41.875 34.885 42.0667 36.9433 41.4883 38.4733C40.855 40.1367 39.28 41.2667 37.0633 41.64C36.3783 41.7617 34.7533 41.7433 34.0167 41.61C32.41 41.3233 30.8867 40.53 29.9467 39.4883C29.5783 39.0833 28.86 38.0217 28.905 37.9467C28.9233 37.92 29.0883 37.8183 29.2717 37.7117C29.4517 37.61 30.1233 37.2217 30.7583 36.8533L31.9083 36.1867L32.15 36.5433C32.4867 37.0567 33.2217 37.7617 33.6667 37.9967C34.9433 38.67 36.695 38.575 37.5583 37.8C37.7319 37.6538 37.8694 37.4693 37.9599 37.2612C38.0504 37.053 38.0915 36.8267 38.08 36.6C38.08 36.1367 38.0217 35.9333 37.78 35.5833C37.47 35.14 36.835 34.7667 35.0317 33.9833C32.9683 33.095 32.08 32.5433 31.2667 31.6667C30.759 31.0881 30.3841 30.4055 30.1683 29.6667C30.0167 29.1017 29.9783 27.685 30.0983 27.115C30.5233 25.12 32.0283 23.7317 34.2 23.3183C34.905 23.185 36.5433 23.235 37.235 23.4067ZM27.845 25.0767L27.8583 26.715H22.65V41.5083H18.9667V26.715H13.7633V25.1083C13.7633 24.2183 13.7817 23.475 13.8067 23.4583C13.8267 23.4317 16.995 23.4183 20.835 23.425L27.8267 23.445L27.845 25.0767Z" fill="#7572D5"/>
</g>
<g id="react"><g clip-path="url(#clip0_20_1854)">
<path d="M47.8125 25C47.8125 22.0833 44.6875 19.375 39.4792 17.5L38.5417 17.1875V16.7708C39.6875 11.0416 38.8542 6.7708 36.25 5.2083C33.6458 3.6458 29.7917 5.10414 25.625 8.74997L25 9.37497L24.7917 9.16664H24.5833C20.3125 5.2083 16.1458 3.85414 13.5417 5.31247C10.9375 6.7708 10.2083 10.8333 11.25 16.1458C11.3596 16.4838 11.4295 16.8333 11.4583 17.1875L10.3125 17.6041C5.20833 19.375 2.1875 22.0833 2.1875 25C2.1875 27.9166 5.52083 30.8333 10.7292 32.7083L11.4583 32.9166C11.3296 33.2854 11.2593 33.672 11.25 34.0625C10.2083 39.2708 11.1458 43.2291 13.5417 44.6875C15.9375 46.1458 20.3125 44.7916 24.4792 41.1458L25.1042 40.625L25.9375 41.4583C28.8542 43.9583 31.7708 45.3125 34.0625 45.3125C34.8708 45.3309 35.6671 45.1137 36.3542 44.6875C38.9583 43.2291 39.8958 38.9583 38.75 33.5416V33.3333C38.705 33.1619 38.6702 32.988 38.6458 32.8125H38.9583C44.4792 30.8333 47.8125 28.0208 47.8125 25ZM44.7917 25C44.7917 26.25 42.5 28.4375 38.0208 29.8958H37.8125C37.2664 28.2202 36.6051 26.5843 35.8333 25C36.5625 23.3333 37.1875 21.6666 37.7083 20.1041L38.5417 20.3125C42.7083 21.7708 44.7917 23.75 44.7917 25ZM27.9167 39.1666L27.0833 38.5416C28.2761 37.2201 29.3891 35.8287 30.4167 34.375L35.7292 33.5416C35.8333 33.75 35.8333 33.9583 35.9375 34.0625C36.3087 35.9492 36.379 37.8829 36.1458 39.7916C35.9995 40.7045 35.5608 41.5452 34.8958 42.1875C33.8542 42.8125 31.0417 41.9791 27.9167 39.1666ZM26.5625 34.5833L25.1042 36.4583L23.4375 34.5833H26.5625ZM12.2917 20C12.8152 21.7174 13.4771 23.3895 14.2708 25C13.4765 26.646 12.8146 28.3528 12.2917 30.1041L11.6667 29.8958C9.84256 29.3201 8.1454 28.4008 6.66667 27.1875C6.28377 26.9455 5.95605 26.6257 5.7048 26.2488C5.45356 25.872 5.2844 25.4465 5.20833 25C5.20833 23.75 7.29167 21.7708 11.25 20.4166L12.2917 20ZM23.4375 15.4166L25 13.6458L26.5625 15.4166H23.4375ZM34.8958 7.81247C36.0417 8.43747 36.6667 11.5625 35.7292 16.1458C35.734 16.2022 35.7272 16.2591 35.7093 16.3128C35.6914 16.3665 35.6627 16.416 35.625 16.4583L30.4167 15.625C29.3891 14.1712 28.2761 12.7799 27.0833 11.4583L27.7083 10.9375C31.0417 8.0208 33.75 7.18747 34.8958 7.81247ZM17.5 18.8541L16.6667 20.2083L15.9375 21.5625C15.625 20.8333 15.4167 20.1041 15.1042 19.2708L17.5 18.8541ZM15.1042 30.7291C15.4167 30 15.625 29.2708 15.9375 28.4375L16.6667 29.7916L17.5 31.1458L15.1042 30.7291ZM32.5 25C31.9699 26.142 31.3788 27.2548 30.7292 28.3333C30.1042 29.4791 29.375 30.5208 28.75 31.5625H21.25C20.5208 30.4166 19.7917 29.375 19.2708 28.3333C18.6161 27.2577 18.0248 26.1447 17.5 25C18.0054 23.8458 18.5974 22.7315 19.2708 21.6666C19.8693 20.5874 20.5301 19.544 21.25 18.5416C23.7457 18.3334 26.2543 18.3334 28.75 18.5416C29.4792 19.5833 30.1042 20.625 30.7292 21.6666C31.4026 22.7315 31.9946 23.8458 32.5 25ZM33.3333 20.2083L32.5 18.8541L34.8958 19.375C34.6639 20.1208 34.3856 20.8514 34.0625 21.5625L33.3333 20.2083ZM32.5 31.1458L33.3333 29.7916L34.0625 28.3333L35 30.7291L32.5 31.1458ZM22.8125 11.3541H22.9167L19.5833 15.5208L14.375 16.3541C14.2708 16.0416 14.2708 15.8333 14.1667 15.5208C13.3333 11.25 13.9583 8.3333 15 7.81247C15.2766 7.63082 15.61 7.55672 15.9375 7.60414C17.3958 7.60414 19.8958 8.6458 22.7083 11.1458L22.8125 11.3541ZM14.1667 34.5833C14.1857 34.2617 14.256 33.9452 14.375 33.6458L19.6875 34.375C20.689 35.8481 21.8034 37.2412 23.0208 38.5416L22.8125 38.75L22.6042 38.9583C21.184 40.2738 19.5211 41.2999 17.7083 41.9791C17.3107 42.1874 16.875 42.3133 16.4275 42.3491C15.98 42.3849 15.5299 42.3299 15.1042 42.1875C13.9583 41.5625 13.3333 38.75 14.1667 34.5833Z" fill="#7572D5"/>
<path d="M25 20.4166C24.0894 20.3959 23.1932 20.647 22.4259 21.1379C21.6586 21.6287 21.0549 22.3371 20.692 23.1726C20.3291 24.008 20.2233 24.9327 20.3882 25.8285C20.5532 26.7243 20.9812 27.5507 21.6179 28.2022C22.2545 28.8536 23.0709 29.3006 23.9627 29.4861C24.8545 29.6715 25.7813 29.587 26.6249 29.2434C27.4685 28.8998 28.1905 28.3126 28.6989 27.5568C29.2073 26.801 29.4789 25.9108 29.4792 24.9999C29.4795 23.8022 29.0109 22.6519 28.1738 21.7953C27.3366 20.9387 26.1974 20.4438 25 20.4166Z" fill="#7572D5"/>
</g>
<defs>
<clipPath id="clip0_20_1854">
<rect width="50" height="50" fill="white"/>
</clipPath>
</defs></g>


<g id="ira">
<path d="M2.312 17.688C1.992 17.688 1.56 17.36 1.016 16.704C0.472 16.032 0.2 15.544 0.2 15.24C0.2 14.936 0.592 12.712 1.376 8.568C2.176 4.408 2.592 1.856 2.624 0.912C2.656 0.383999 2.904 0.119998 3.368 0.119998C3.752 0.119998 4.264 0.503999 4.904 1.272C5.544 2.04 5.864 2.76 5.864 3.432C5.864 3.72 5.64 4.808 5.192 6.696C4.76 8.568 4.464 9.88 4.304 10.632C4.16 11.368 4.032 12.032 3.92 12.624C3.808 13.2 3.72 13.656 3.656 13.992C3.208 16.04 2.856 17.216 2.6 17.52C2.504 17.632 2.408 17.688 2.312 17.688ZM21.0143 16.824C21.0143 17.48 20.5583 17.808 19.6463 17.808C18.3983 17.808 17.0863 17.16 15.7103 15.864C14.3503 14.568 13.3823 13.216 12.8063 11.808C12.5503 12.576 12.3743 13.096 12.2783 13.368C12.1823 13.64 12.0383 14.072 11.8463 14.664C11.6543 15.256 11.5023 15.696 11.3903 15.984C11.2943 16.272 11.1823 16.576 11.0543 16.896C10.8143 17.504 10.5823 17.808 10.3583 17.808C9.99025 17.808 9.54225 17.504 9.01425 16.896C8.50225 16.272 8.24625 15.768 8.24625 15.384C8.24625 15 8.43025 14.288 8.79825 13.248C9.88625 10.064 10.5103 7.16 10.6703 4.536C10.3663 4.296 10.0943 3.96 9.85425 3.528C9.61425 3.096 9.49425 2.736 9.49425 2.448C9.49425 1.968 10.1103 1.464 11.3423 0.935999C12.5903 0.408 14.0223 0.144 15.6383 0.144C17.2703 0.144 18.6303 0.527999 19.7183 1.296C20.8063 2.064 21.3503 3.064 21.3503 4.296C21.3503 5.208 21.0783 6.088 20.5343 6.936C20.0063 7.768 19.4223 8.424 18.7823 8.904C18.1583 9.368 17.5743 9.792 17.0303 10.176C16.5023 10.56 16.2383 10.808 16.2383 10.92C16.2383 11.304 16.3663 11.672 16.6223 12.024C16.8783 12.36 17.2383 12.76 17.7023 13.224C18.1663 13.672 18.5663 14.056 18.9023 14.376C19.2383 14.68 19.5103 14.936 19.7183 15.144C19.9423 15.352 20.1583 15.568 20.3663 15.792C20.7983 16.208 21.0143 16.552 21.0143 16.824ZM17.6543 4.536C17.6543 3.864 16.9983 3.528 15.6863 3.528C15.0623 3.528 14.3183 3.704 13.4543 4.056C13.8543 4.664 14.0543 5.224 14.0543 5.736C14.0543 6.664 13.9263 7.688 13.6703 8.808C13.8463 8.68 14.1743 8.456 14.6543 8.136C15.1343 7.8 15.5023 7.536 15.7583 7.344C16.0303 7.136 16.3343 6.872 16.6703 6.552C17.3263 5.928 17.6543 5.256 17.6543 4.536ZM33.2603 3.456C33.6603 3.456 34.0203 3.696 34.3403 4.176C34.6763 4.656 34.8443 5.056 34.8443 5.376C34.8443 5.68 34.6363 5.936 34.2203 6.144C32.9403 6.736 31.4043 7.592 29.6123 8.712C27.8363 9.832 26.9483 10.544 26.9483 10.848C26.9483 11.152 27.2603 11.56 27.8843 12.072C28.5243 12.584 29.2283 13.072 29.9963 13.536C32.0283 14.8 33.0443 15.68 33.0443 16.176C33.0443 16.656 32.6763 16.896 31.9403 16.896C31.2203 16.896 30.1563 16.576 28.7483 15.936C27.3403 15.296 26.0363 14.52 24.8363 13.608C23.6523 12.696 23.0603 11.92 23.0603 11.28C23.0603 10.96 23.1323 10.528 23.2763 9.984C23.4203 9.44 23.5883 9.088 23.7803 8.928C24.8043 8 26.4043 6.856 28.5803 5.496C30.7723 4.136 32.3323 3.456 33.2603 3.456ZM38.5229 17.688C38.2029 17.688 37.7709 17.36 37.2269 16.704C36.6829 16.032 36.4109 15.544 36.4109 15.24C36.4109 14.936 36.8029 12.712 37.5869 8.568C38.3869 4.408 38.8029 1.856 38.8349 0.912C38.8669 0.383999 39.1149 0.119998 39.5789 0.119998C39.9629 0.119998 40.4749 0.503999 41.1149 1.272C41.7549 2.04 42.0749 2.76 42.0749 3.432C42.0749 3.72 41.8509 4.808 41.4029 6.696C40.9709 8.568 40.6749 9.88 40.5149 10.632C40.3709 11.368 40.2429 12.032 40.1309 12.624C40.0189 13.2 39.9309 13.656 39.8669 13.992C39.4189 16.04 39.0669 17.216 38.8109 17.52C38.7149 17.632 38.6189 17.688 38.5229 17.688ZM46.7132 4.056C46.7132 3.64 46.8972 3.432 47.2652 3.432C48.7052 3.432 50.2652 3.928 51.9452 4.92C53.6252 5.896 55.0572 6.976 56.2412 8.16C56.9132 8.832 57.2492 9.384 57.2492 9.816C57.2492 10.424 56.9372 11.024 56.3132 11.616C55.6892 12.208 54.5292 13.04 52.8332 14.112C51.1372 15.184 49.8812 15.912 49.0652 16.296C48.2492 16.68 47.5052 16.872 46.8332 16.872C46.1772 16.872 45.8492 16.592 45.8492 16.032C45.8492 15.632 46.2572 15.096 47.0732 14.424C47.9052 13.736 48.8172 13.104 49.8092 12.528C52.4332 10.96 53.7452 10.008 53.7452 9.672C53.7452 9.432 53.1212 8.92 51.8732 8.136C50.6252 7.352 49.6092 6.832 48.8252 6.576C48.4732 6.464 48.0332 6.096 47.5052 5.472C46.9772 4.832 46.7132 4.36 46.7132 4.056ZM71.9823 -1.43051e-06C72.4463 -1.43051e-06 72.9583 0.239999 73.5182 0.719999C74.0943 1.2 74.3823 1.592 74.3823 1.896C74.3823 2.904 74.1423 4.656 73.6623 7.152C73.1983 9.632 72.5983 12.008 71.8623 14.28C71.1263 16.552 70.4623 17.688 69.8703 17.688C69.6303 17.688 69.3183 17.56 68.9343 17.304C68.5503 17.032 68.2943 16.72 68.1663 16.368C68.0383 16 67.7903 15.248 67.4223 14.112C66.5743 11.504 65.7743 9.344 65.0223 7.632C64.9103 8.112 64.7583 8.792 64.5663 9.672C64.3903 10.552 64.2463 11.248 64.1343 11.76C64.0223 12.256 63.8863 12.864 63.7263 13.584C63.5663 14.288 63.4223 14.848 63.2943 15.264C63.1823 15.68 63.0543 16.096 62.9103 16.512C62.6543 17.296 62.4143 17.688 62.1903 17.688C61.8703 17.688 61.4543 17.4 60.9423 16.824C60.4303 16.232 60.1743 15.728 60.1743 15.312C60.1743 14.88 60.6303 12.648 61.5423 8.616C62.4703 4.584 62.9743 2.056 63.0543 1.032C63.1023 0.423999 63.2863 0.119998 63.6063 0.119998C63.8783 0.119998 64.2223 0.279999 64.6383 0.599999C65.0703 0.919999 65.4383 1.312 65.7422 1.776C66.0623 2.224 66.6303 3.704 67.4463 6.216C68.2623 8.728 68.9103 10.528 69.3903 11.616C70.0143 9.76 70.5903 6.96 71.1183 3.216C71.3263 1.728 71.4623 0.823999 71.5262 0.503999C71.5903 0.167999 71.7423 -1.43051e-06 71.9823 -1.43051e-06ZM87.7629 8.688C88.4029 8.688 88.8589 8.752 89.1309 8.88C89.4189 8.992 89.5629 9.208 89.5629 9.528C89.5629 9.96 88.8669 10.4 87.4749 10.848C87.5069 12.064 87.5229 13.232 87.5229 14.352C87.5229 15.456 87.4349 16.288 87.2589 16.848C87.0829 17.392 86.8029 17.664 86.4189 17.664C86.0349 17.664 85.7309 17.472 85.5069 17.088C85.2989 16.688 85.1229 16.04 84.9789 15.144C84.8509 14.248 84.7149 13.064 84.5709 11.592C82.9389 11.96 81.7629 12.256 81.0429 12.48C79.7949 15.936 78.9629 17.664 78.5469 17.664C78.2109 17.664 77.7629 17.44 77.2029 16.992C76.6589 16.544 76.3869 16.08 76.3869 15.6C76.3869 15.328 76.6989 14.48 77.3229 13.056C77.0509 12.88 76.8109 12.632 76.6029 12.312C76.4109 11.976 76.3149 11.656 76.3149 11.352C76.3149 10.824 77.1069 10.32 78.6909 9.84C78.8189 9.52 78.9469 9.16 79.0749 8.76C79.2189 8.344 79.5629 7.384 80.1069 5.88C80.6669 4.376 81.1069 3.12 81.4269 2.112C81.5709 1.632 82.0669 1.184 82.9149 0.767999C83.7789 0.351999 84.4509 0.144 84.9309 0.144C85.4909 0.144 85.9869 0.92 86.4189 2.472C86.8669 4.024 87.1789 6.096 87.3549 8.688H87.7629ZM82.2189 9.096C82.6989 9.032 83.3949 8.952 84.3069 8.856C84.2589 8.392 84.1789 7.6 84.0669 6.48C83.9709 5.36 83.8989 4.552 83.8509 4.056C83.5789 4.952 83.0349 6.632 82.2189 9.096Z" fill="#A0B05D"/>
</g>

</svg>