<svg width="50" height="50" viewBox="0 0 50 50" fill="none" xmlns="http://www.w3.org/2000/svg">
<path id="css" d="M38.0508 10.8437L12.946 10.8377L13.3515 15.7547L32.6381 15.7577L32.1519 20.8502H19.5035L19.9608 25.6742H31.7358L31.0392 32.2806L25.4969 33.7886L19.8663 32.2701L19.508 28.3134H14.5359L15.0877 35.5411L25.4969 38.7341L35.7309 35.8652L38.0493 10.8452L38.0508 10.8437ZM5.49844 2.56873H45.4984L41.86 42.9999L25.4542 47.5687L9.13993 42.9968L5.49844 2.56873Z" fill="#7572D5"/>
<g id="code"><path fill-rule="evenodd" clip-rule="evenodd" d="M18.3125 42.0645L27.2623 6.6875L31.4375 7.87241L22.4878 43.3125L18.3125 42.0645Z"/>
<path fill-rule="evenodd" clip-rule="evenodd" d="M13.5025 12.6875L16.5625 15.9278L7.99501 25.0001L16.5625 34.0721L13.5025 37.3125L1.875 25.0001L13.5025 12.6875Z" />
<path fill-rule="evenodd" clip-rule="evenodd" d="M36.4976 12.6875L33.4375 15.9278L42.0051 25.0001L33.4375 34.0721L36.4976 37.3125L48.125 25.0001L36.4976 12.6875Z" />
</g>
<g id="figma"><path d="M17.7083 4.16663C14.2565 4.16663 11.4583 6.96486 11.4583 10.4166C11.4583 13.8684 14.2565 16.6666 17.7083 16.6666H32.2916C35.7435 16.6666 38.5416 13.8684 38.5416 10.4166C38.5416 6.96486 35.7435 4.16663 32.2916 4.16663H17.7083Z" fill="#7572D5"/>
<path d="M32.2917 18.75C28.8398 18.75 26.0417 21.5481 26.0417 25C26.0417 28.4519 28.8398 31.25 32.2917 31.25C35.7436 31.25 38.5417 28.4519 38.5417 25C38.5417 21.5481 35.7436 18.75 32.2917 18.75Z" fill="#7572D5"/>
<path d="M11.4583 25C11.4583 21.5481 14.2565 18.75 17.7083 18.75H23.9583V31.25H17.7083C14.2565 31.25 11.4583 28.4519 11.4583 25Z" fill="#7572D5"/>
<path d="M17.7083 33.3334C14.2565 33.3334 11.4583 36.1315 11.4583 39.5834C11.4583 43.0352 14.2565 45.8334 17.7083 45.8334C21.1602 45.8334 23.9583 43.0352 23.9583 39.5834V33.3334H17.7083Z" fill="#7572D5"/>
</g>
<g id="styled-components"><path d="M37.2591 6.25L36.9888 7.64963C36.5708 10.3021 36.7221 11.061 37.8682 12.0454L38.9747 12.9546L37.8286 18.0305C37.1438 21.0588 36.3041 23.5968 35.7707 24.4308C35.313 25.1503 34.7796 26.2099 34.6642 26.7791C34.4732 27.4592 33.8245 28.1429 32.8334 28.7478C31.9576 29.2418 30.2385 30.5663 29.0203 31.6294C28.0472 32.4993 27.3769 33.0326 27.0129 33.2617L25.8235 34.196C25.4415 34.8046 25.2253 35.295 25.1424 35.6672C25.0595 36.0503 25.1063 36.3044 25.2289 36.4905C25.3478 36.6695 25.5532 36.7948 25.8343 36.8736C26.1671 36.951 26.5097 36.9788 26.8507 36.9559C27.6222 36.9035 28.3858 36.7691 29.1284 36.555C29.3807 36.487 29.5789 36.4225 29.7519 36.3653C30.0186 36.0395 30.6349 35.4238 31.7269 34.3535C34.6246 31.5149 35.731 29.9613 34.5885 30.3802C34.1669 30.5305 34.3579 30.1511 35.0823 29.3922C36.6104 27.9138 37.4862 25.6801 39.317 18.6748C40.7659 13.1443 40.7659 13.0656 41.8327 13.0656C42.3336 13.0656 43.75 13.1515 43.75 13.1515V6.25H40.4992H37.2591ZM24.4216 18.0806C23.3692 18.0735 21.1058 19.6664 14.3303 25.1611C14.0383 25.8519 14.0131 26.328 14.1464 26.6359C14.2329 26.8471 14.3915 26.9938 14.6114 27.1012C14.8276 27.2086 15.1087 27.2731 15.4187 27.2981C16.035 27.3518 16.763 27.2552 17.3504 27.1406L17.7469 27.0511C17.8826 26.8704 18.0608 26.7254 18.2659 26.6287C18.6839 26.3996 20.4391 24.8103 22.1943 23.1064C25.2829 19.9993 26.0073 18.5961 24.7495 18.1415C24.6463 18.1007 24.5326 18.08 24.4216 18.0806ZM32.336 20.2391C31.4098 20.2642 29.7411 21.3309 26.8831 23.5968C25.4487 24.753 24.5405 25.3759 24.0539 25.5047L22.1654 26.9867C21.4554 28.2753 21.3509 29.0736 21.5383 29.5139C21.5852 29.6225 21.6533 29.7208 21.7387 29.8031C21.8241 29.8855 21.925 29.9502 22.0357 29.9936C22.311 30.1015 22.6046 30.1562 22.9006 30.1546C23.608 30.1471 24.3112 30.0448 24.991 29.8504C25.3453 29.7559 25.6952 29.6461 26.0398 29.521L26.1443 29.4781L26.3353 29.3779C26.6957 28.9161 27.5246 28.0462 28.5626 27.044C31.8423 23.9011 33.5181 21.6674 33.1758 20.8333C33.0208 20.4288 32.7541 20.2248 32.336 20.2391ZM23.5998 24.1051C23.3331 24.1337 22.7349 24.5919 21.6573 25.5298C20.1003 26.8972 18.4028 27.6847 17.8154 27.3339C17.6788 27.3645 17.5419 27.3932 17.4045 27.4198C16.8062 27.5379 16.0602 27.6346 15.3934 27.5809C15.0793 27.562 14.7714 27.4855 14.4852 27.3554C14.2153 27.2328 13.9999 27.0164 13.8797 26.7468C13.7464 26.4247 13.7464 26.0238 13.8978 25.5119L11.5551 27.4234L6.2536 31.7798V38.8424L23.6251 25.2506C23.6217 25.1018 23.6411 24.9533 23.6827 24.8103C23.8161 24.3306 23.8089 24.0872 23.5998 24.1087V24.1051ZM31.0746 26.3925C30.8115 26.3925 30.3718 26.7612 29.669 27.5021C28.714 28.5152 27.2111 29.496 26.4146 29.6964L26.292 29.7609C26.1613 29.8145 26.0291 29.8646 25.8956 29.9112C25.6794 29.9828 25.3982 30.0687 25.0739 30.1546C24.4252 30.33 23.6179 30.4911 22.897 30.4732C22.5572 30.4728 22.2207 30.4072 21.9059 30.2799C21.6093 30.1585 21.3716 29.9275 21.2428 29.6356C21.0338 29.138 21.1167 28.44 21.5744 27.4485L6.25 39.4366V43.75H12.9823L27.2615 32.6103C27.6327 32.2022 28.1914 31.6438 28.9446 30.9457C30.9629 29.0879 31.4206 28.4472 31.4206 27.4986C31.4206 26.7612 31.3377 26.3889 31.0746 26.3889V26.3925ZM34.4732 33.3727L33.2514 34.5826C32.5667 35.2269 31.3449 36.0216 30.5088 36.3617L30.343 36.4333L30.3322 36.4512L30.2961 36.487C30.2637 36.512 30.2493 36.5156 30.2241 36.5263C29.8903 36.6518 29.5512 36.7629 29.2077 36.8592C28.4441 37.08 27.6586 37.218 26.8651 37.2709C26.4899 37.2948 26.1132 37.2622 25.7478 37.1743C25.4307 37.1049 25.1508 36.9213 24.9622 36.6588C24.7892 36.3939 24.7387 36.0395 24.836 35.6028C24.9134 35.2919 25.0284 34.9914 25.1784 34.7079L13.6563 43.75H28.9807L30.8115 41.6667C33.3271 38.7529 34.4732 36.6695 34.4732 34.8869V33.3727Z" fill="#7572D5"/></g>
<g id="typescript"><path d="M5 25V45H45V5H5V25ZM37.235 23.4067C38.2517 23.66 39.025 24.1117 39.7367 24.8483C40.105 25.2417 40.6517 25.9583 40.695 26.1317C40.7083 26.1817 38.9683 27.3483 37.915 28.0033C37.8767 28.0283 37.7233 27.8633 37.5533 27.61C37.0367 26.86 36.4983 26.5367 35.6733 26.48C34.46 26.3967 33.68 27.0317 33.6867 28.0917C33.6756 28.3523 33.7343 28.6112 33.8567 28.8417C34.1233 29.3933 34.62 29.725 36.1733 30.3967C39.0383 31.63 40.2633 32.4417 41.025 33.5967C41.875 34.885 42.0667 36.9433 41.4883 38.4733C40.855 40.1367 39.28 41.2667 37.0633 41.64C36.3783 41.7617 34.7533 41.7433 34.0167 41.61C32.41 41.3233 30.8867 40.53 29.9467 39.4883C29.5783 39.0833 28.86 38.0217 28.905 37.9467C28.9233 37.92 29.0883 37.8183 29.2717 37.7117C29.4517 37.61 30.1233 37.2217 30.7583 36.8533L31.9083 36.1867L32.15 36.5433C32.4867 37.0567 33.2217 37.7617 33.6667 37.9967C34.9433 38.67 36.695 38.575 37.5583 37.8C37.7319 37.6538 37.8694 37.4693 37.9599 37.2612C38.0504 37.053 38.0915 36.8267 38.08 36.6C38.08 36.1367 38.0217 35.9333 37.78 35.5833C37.47 35.14 36.835 34.7667 35.0317 33.9833C32.9683 33.095 32.08 32.5433 31.2667 31.6667C30.759 31.0881 30.3841 30.4055 30.1683 29.6667C30.0167 29.1017 29.9783 27.685 30.0983 27.115C30.5233 25.12 32.0283 23.7317 34.2 23.3183C34.905 23.185 36.5433 23.235 37.235 23.4067ZM27.845 25.0767L27.8583 26.715H22.65V41.5083H18.9667V26.715H13.7633V25.1083C13.7633 24.2183 13.7817 23.475 13.8067 23.4583C13.8267 23.4317 16.995 23.4183 20.835 23.425L27.8267 23.445L27.845 25.0767Z" fill="#7572D5"/>
</g>
<g id="react"><g clip-path="url(#clip0_20_1854)">
<path d="M47.8125 25C47.8125 22.0833 44.6875 19.375 39.4792 17.5L38.5417 17.1875V16.7708C39.6875 11.0416 38.8542 6.7708 36.25 5.2083C33.6458 3.6458 29.7917 5.10414 25.625 8.74997L25 9.37497L24.7917 9.16664H24.5833C20.3125 5.2083 16.1458 3.85414 13.5417 5.31247C10.9375 6.7708 10.2083 10.8333 11.25 16.1458C11.3596 16.4838 11.4295 16.8333 11.4583 17.1875L10.3125 17.6041C5.20833 19.375 2.1875 22.0833 2.1875 25C2.1875 27.9166 5.52083 30.8333 10.7292 32.7083L11.4583 32.9166C11.3296 33.2854 11.2593 33.672 11.25 34.0625C10.2083 39.2708 11.1458 43.2291 13.5417 44.6875C15.9375 46.1458 20.3125 44.7916 24.4792 41.1458L25.1042 40.625L25.9375 41.4583C28.8542 43.9583 31.7708 45.3125 34.0625 45.3125C34.8708 45.3309 35.6671 45.1137 36.3542 44.6875C38.9583 43.2291 39.8958 38.9583 38.75 33.5416V33.3333C38.705 33.1619 38.6702 32.988 38.6458 32.8125H38.9583C44.4792 30.8333 47.8125 28.0208 47.8125 25ZM44.7917 25C44.7917 26.25 42.5 28.4375 38.0208 29.8958H37.8125C37.2664 28.2202 36.6051 26.5843 35.8333 25C36.5625 23.3333 37.1875 21.6666 37.7083 20.1041L38.5417 20.3125C42.7083 21.7708 44.7917 23.75 44.7917 25ZM27.9167 39.1666L27.0833 38.5416C28.2761 37.2201 29.3891 35.8287 30.4167 34.375L35.7292 33.5416C35.8333 33.75 35.8333 33.9583 35.9375 34.0625C36.3087 35.9492 36.379 37.8829 36.1458 39.7916C35.9995 40.7045 35.5608 41.5452 34.8958 42.1875C33.8542 42.8125 31.0417 41.9791 27.9167 39.1666ZM26.5625 34.5833L25.1042 36.4583L23.4375 34.5833H26.5625ZM12.2917 20C12.8152 21.7174 13.4771 23.3895 14.2708 25C13.4765 26.646 12.8146 28.3528 12.2917 30.1041L11.6667 29.8958C9.84256 29.3201 8.1454 28.4008 6.66667 27.1875C6.28377 26.9455 5.95605 26.6257 5.7048 26.2488C5.45356 25.872 5.2844 25.4465 5.20833 25C5.20833 23.75 7.29167 21.7708 11.25 20.4166L12.2917 20ZM23.4375 15.4166L25 13.6458L26.5625 15.4166H23.4375ZM34.8958 7.81247C36.0417 8.43747 36.6667 11.5625 35.7292 16.1458C35.734 16.2022 35.7272 16.2591 35.7093 16.3128C35.6914 16.3665 35.6627 16.416 35.625 16.4583L30.4167 15.625C29.3891 14.1712 28.2761 12.7799 27.0833 11.4583L27.7083 10.9375C31.0417 8.0208 33.75 7.18747 34.8958 7.81247ZM17.5 18.8541L16.6667 20.2083L15.9375 21.5625C15.625 20.8333 15.4167 20.1041 15.1042 19.2708L17.5 18.8541ZM15.1042 30.7291C15.4167 30 15.625 29.2708 15.9375 28.4375L16.6667 29.7916L17.5 31.1458L15.1042 30.7291ZM32.5 25C31.9699 26.142 31.3788 27.2548 30.7292 28.3333C30.1042 29.4791 29.375 30.5208 28.75 31.5625H21.25C20.5208 30.4166 19.7917 29.375 19.2708 28.3333C18.6161 27.2577 18.0248 26.1447 17.5 25C18.0054 23.8458 18.5974 22.7315 19.2708 21.6666C19.8693 20.5874 20.5301 19.544 21.25 18.5416C23.7457 18.3334 26.2543 18.3334 28.75 18.5416C29.4792 19.5833 30.1042 20.625 30.7292 21.6666C31.4026 22.7315 31.9946 23.8458 32.5 25ZM33.3333 20.2083L32.5 18.8541L34.8958 19.375C34.6639 20.1208 34.3856 20.8514 34.0625 21.5625L33.3333 20.2083ZM32.5 31.1458L33.3333 29.7916L34.0625 28.3333L35 30.7291L32.5 31.1458ZM22.8125 11.3541H22.9167L19.5833 15.5208L14.375 16.3541C14.2708 16.0416 14.2708 15.8333 14.1667 15.5208C13.3333 11.25 13.9583 8.3333 15 7.81247C15.2766 7.63082 15.61 7.55672 15.9375 7.60414C17.3958 7.60414 19.8958 8.6458 22.7083 11.1458L22.8125 11.3541ZM14.1667 34.5833C14.1857 34.2617 14.256 33.9452 14.375 33.6458L19.6875 34.375C20.689 35.8481 21.8034 37.2412 23.0208 38.5416L22.8125 38.75L22.6042 38.9583C21.184 40.2738 19.5211 41.2999 17.7083 41.9791C17.3107 42.1874 16.875 42.3133 16.4275 42.3491C15.98 42.3849 15.5299 42.3299 15.1042 42.1875C13.9583 41.5625 13.3333 38.75 14.1667 34.5833Z" fill="#7572D5"/>
<path d="M25 20.4166C24.0894 20.3959 23.1932 20.647 22.4259 21.1379C21.6586 21.6287 21.0549 22.3371 20.692 23.1726C20.3291 24.008 20.2233 24.9327 20.3882 25.8285C20.5532 26.7243 20.9812 27.5507 21.6179 28.2022C22.2545 28.8536 23.0709 29.3006 23.9627 29.4861C24.8545 29.6715 25.7813 29.587 26.6249 29.2434C27.4685 28.8998 28.1905 28.3126 28.6989 27.5568C29.2073 26.801 29.4789 25.9108 29.4792 24.9999C29.4795 23.8022 29.0109 22.6519 28.1738 21.7953C27.3366 20.9387 26.1974 20.4438 25 20.4166Z" fill="#7572D5"/>
</g>
<defs>
<clipPath id="clip0_20_1854">
<rect width="50" height="50" fill="white"/>
</clipPath>
</defs></g>


<g id="ira">
<g clip-path="url(#clip0_9912_1211)">
<rect width="105" height="28" rx="14" fill="#88BB44"/>
<path d="M16.44 8.456C16.84 8.456 17.2 8.696 17.52 9.176C17.856 9.656 18.024 10.056 18.024 10.376C18.024 10.68 17.816 10.936 17.4 11.144C16.12 11.736 14.584 12.592 12.792 13.712C11.016 14.832 10.128 15.544 10.128 15.848C10.128 16.152 10.44 16.56 11.064 17.072C11.704 17.584 12.408 18.072 13.176 18.536C15.208 19.8 16.224 20.68 16.224 21.176C16.224 21.656 15.856 21.896 15.12 21.896C14.4 21.896 13.336 21.576 11.928 20.936C10.52 20.296 9.216 19.52 8.016 18.608C6.832 17.696 6.24 16.92 6.24 16.28C6.24 15.96 6.312 15.528 6.456 14.984C6.6 14.44 6.768 14.088 6.96 13.928C7.984 13 9.584 11.856 11.76 10.496C13.952 9.136 15.512 8.456 16.44 8.456ZM21.7026 22.688C21.3826 22.688 20.9506 22.36 20.4066 21.704C19.8626 21.032 19.5906 20.544 19.5906 20.24C19.5906 19.936 19.9826 17.712 20.7666 13.568C21.5666 9.408 21.9826 6.856 22.0146 5.912C22.0466 5.384 22.2946 5.12 22.7586 5.12C23.1426 5.12 23.6546 5.504 24.2946 6.272C24.9346 7.04 25.2546 7.76 25.2546 8.432C25.2546 8.72 25.0306 9.808 24.5826 11.696C24.1506 13.568 23.8546 14.88 23.6946 15.632C23.5506 16.368 23.4226 17.032 23.3106 17.624C23.1986 18.2 23.1106 18.656 23.0466 18.992C22.5986 21.04 22.2466 22.216 21.9906 22.52C21.8946 22.632 21.7986 22.688 21.7026 22.688ZM29.8929 9.056C29.8929 8.64 30.0769 8.432 30.4449 8.432C31.8849 8.432 33.4449 8.928 35.1249 9.92C36.8049 10.896 38.2369 11.976 39.4209 13.16C40.0929 13.832 40.4289 14.384 40.4289 14.816C40.4289 15.424 40.1169 16.024 39.4929 16.616C38.8689 17.208 37.7089 18.04 36.0129 19.112C34.3169 20.184 33.0609 20.912 32.2449 21.296C31.4289 21.68 30.6849 21.872 30.0129 21.872C29.3569 21.872 29.0289 21.592 29.0289 21.032C29.0289 20.632 29.4369 20.096 30.2529 19.424C31.0849 18.736 31.9969 18.104 32.9889 17.528C35.6129 15.96 36.9249 15.008 36.9249 14.672C36.9249 14.432 36.3009 13.92 35.0529 13.136C33.8049 12.352 32.7889 11.832 32.0049 11.576C31.6529 11.464 31.2129 11.096 30.6849 10.472C30.1569 9.832 29.8929 9.36 29.8929 9.056ZM56.1939 21.824C56.1939 22.48 55.7379 22.808 54.8259 22.808C53.5779 22.808 52.2659 22.16 50.8899 20.864C49.5299 19.568 48.5619 18.216 47.9859 16.808C47.7299 17.576 47.5539 18.096 47.4579 18.368C47.3619 18.64 47.2179 19.072 47.0259 19.664C46.8339 20.256 46.6819 20.696 46.5699 20.984C46.4739 21.272 46.3619 21.576 46.2339 21.896C45.9939 22.504 45.7619 22.808 45.5379 22.808C45.1699 22.808 44.7219 22.504 44.1939 21.896C43.6819 21.272 43.4259 20.768 43.4259 20.384C43.4259 20 43.6099 19.288 43.9779 18.248C45.0659 15.064 45.6899 12.16 45.8499 9.536C45.5459 9.296 45.2739 8.96 45.0339 8.528C44.7939 8.096 44.6739 7.736 44.6739 7.448C44.6739 6.968 45.2899 6.464 46.5219 5.936C47.7699 5.408 49.2019 5.144 50.8179 5.144C52.4499 5.144 53.8099 5.528 54.8979 6.296C55.9859 7.064 56.5299 8.064 56.5299 9.296C56.5299 10.208 56.2579 11.088 55.7139 11.936C55.1859 12.768 54.6019 13.424 53.9619 13.904C53.3379 14.368 52.7539 14.792 52.2099 15.176C51.6819 15.56 51.4179 15.808 51.4179 15.92C51.4179 16.304 51.5459 16.672 51.8019 17.024C52.0579 17.36 52.4179 17.76 52.8819 18.224C53.3459 18.672 53.7459 19.056 54.0819 19.376C54.4179 19.68 54.6899 19.936 54.8979 20.144C55.1219 20.352 55.3379 20.568 55.5459 20.792C55.9779 21.208 56.1939 21.552 56.1939 21.824ZM52.8339 9.536C52.8339 8.864 52.1779 8.528 50.8659 8.528C50.2419 8.528 49.4979 8.704 48.6339 9.056C49.0339 9.664 49.2339 10.224 49.2339 10.736C49.2339 11.664 49.1059 12.688 48.8499 13.808C49.0259 13.68 49.3539 13.456 49.8339 13.136C50.3139 12.8 50.6819 12.536 50.9379 12.344C51.2099 12.136 51.5139 11.872 51.8499 11.552C52.5059 10.928 52.8339 10.256 52.8339 9.536ZM61.312 22.688C60.992 22.688 60.56 22.36 60.016 21.704C59.472 21.032 59.2 20.544 59.2 20.24C59.2 19.936 59.592 17.712 60.376 13.568C61.176 9.408 61.592 6.856 61.624 5.912C61.656 5.384 61.904 5.12 62.368 5.12C62.752 5.12 63.264 5.504 63.904 6.272C64.544 7.04 64.864 7.76 64.864 8.432C64.864 8.72 64.64 9.808 64.192 11.696C63.76 13.568 63.464 14.88 63.304 15.632C63.16 16.368 63.032 17.032 62.92 17.624C62.808 18.2 62.72 18.656 62.656 18.992C62.208 21.04 61.856 22.216 61.6 22.52C61.504 22.632 61.408 22.688 61.312 22.688ZM78.9823 5C79.4463 5 79.9583 5.24 80.5182 5.72C81.0943 6.2 81.3823 6.592 81.3823 6.896C81.3823 7.904 81.1423 9.656 80.6623 12.152C80.1983 14.632 79.5983 17.008 78.8623 19.28C78.1263 21.552 77.4623 22.688 76.8703 22.688C76.6303 22.688 76.3183 22.56 75.9343 22.304C75.5503 22.032 75.2943 21.72 75.1663 21.368C75.0383 21 74.7903 20.248 74.4223 19.112C73.5743 16.504 72.7743 14.344 72.0223 12.632C71.9103 13.112 71.7583 13.792 71.5663 14.672C71.3903 15.552 71.2463 16.248 71.1343 16.76C71.0223 17.256 70.8863 17.864 70.7263 18.584C70.5663 19.288 70.4223 19.848 70.2943 20.264C70.1823 20.68 70.0543 21.096 69.9103 21.512C69.6543 22.296 69.4143 22.688 69.1903 22.688C68.8703 22.688 68.4543 22.4 67.9423 21.824C67.4303 21.232 67.1743 20.728 67.1743 20.312C67.1743 19.88 67.6303 17.648 68.5423 13.616C69.4703 9.584 69.9743 7.056 70.0543 6.032C70.1023 5.424 70.2863 5.12 70.6063 5.12C70.8783 5.12 71.2223 5.28 71.6383 5.6C72.0703 5.92 72.4383 6.312 72.7422 6.776C73.0623 7.224 73.6303 8.704 74.4463 11.216C75.2623 13.728 75.9103 15.528 76.3903 16.616C77.0143 14.76 77.5903 11.96 78.1183 8.216C78.3263 6.728 78.4623 5.824 78.5262 5.504C78.5903 5.168 78.7423 5 78.9823 5ZM94.7629 13.688C95.4029 13.688 95.8589 13.752 96.1309 13.88C96.4189 13.992 96.5629 14.208 96.5629 14.528C96.5629 14.96 95.8669 15.4 94.4749 15.848C94.5069 17.064 94.5229 18.232 94.5229 19.352C94.5229 20.456 94.4349 21.288 94.2589 21.848C94.0829 22.392 93.8029 22.664 93.4189 22.664C93.0349 22.664 92.7309 22.472 92.5069 22.088C92.2989 21.688 92.1229 21.04 91.9789 20.144C91.8509 19.248 91.7149 18.064 91.5709 16.592C89.9389 16.96 88.7629 17.256 88.0429 17.48C86.7949 20.936 85.9629 22.664 85.5469 22.664C85.2109 22.664 84.7629 22.44 84.2029 21.992C83.6589 21.544 83.3869 21.08 83.3869 20.6C83.3869 20.328 83.6989 19.48 84.3229 18.056C84.0509 17.88 83.8109 17.632 83.6029 17.312C83.4109 16.976 83.3149 16.656 83.3149 16.352C83.3149 15.824 84.1069 15.32 85.6909 14.84C85.8189 14.52 85.9469 14.16 86.0749 13.76C86.2189 13.344 86.5629 12.384 87.1069 10.88C87.6669 9.376 88.1069 8.12 88.4269 7.112C88.5709 6.632 89.0669 6.184 89.9149 5.768C90.7789 5.352 91.4509 5.144 91.9309 5.144C92.4909 5.144 92.9869 5.92 93.4189 7.472C93.8669 9.024 94.1789 11.096 94.3549 13.688H94.7629ZM89.2189 14.096C89.6989 14.032 90.3949 13.952 91.3069 13.856C91.2589 13.392 91.1789 12.6 91.0669 11.48C90.9709 10.36 90.8989 9.552 90.8509 9.056C90.5789 9.952 90.0349 11.632 89.2189 14.096Z" fill="#FFFF00"/>
</g>
<defs>
<clipPath id="clip0_9912_1211">
<rect width="105" height="28" rx="14" fill="white"/>
</clipPath>
</defs>
</g>


</svg>