<svg width="105" height="28" viewBox="0 0 105 28" fill="none" xmlns="http://www.w3.org/2000/svg">
<g clip-path="url(#clip0_9912_1211)">
<rect width="105" height="28" rx="14" fill="#88BB44"/>
<path d="M16.44 8.456C16.84 8.456 17.2 8.696 17.52 9.176C17.856 9.656 18.024 10.056 18.024 10.376C18.024 10.68 17.816 10.936 17.4 11.144C16.12 11.736 14.584 12.592 12.792 13.712C11.016 14.832 10.128 15.544 10.128 15.848C10.128 16.152 10.44 16.56 11.064 17.072C11.704 17.584 12.408 18.072 13.176 18.536C15.208 19.8 16.224 20.68 16.224 21.176C16.224 21.656 15.856 21.896 15.12 21.896C14.4 21.896 13.336 21.576 11.928 20.936C10.52 20.296 9.216 19.52 8.016 18.608C6.832 17.696 6.24 16.92 6.24 16.28C6.24 15.96 6.312 15.528 6.456 14.984C6.6 14.44 6.768 14.088 6.96 13.928C7.984 13 9.584 11.856 11.76 10.496C13.952 9.136 15.512 8.456 16.44 8.456ZM21.7026 22.688C21.3826 22.688 20.9506 22.36 20.4066 21.704C19.8626 21.032 19.5906 20.544 19.5906 20.24C19.5906 19.936 19.9826 17.712 20.7666 13.568C21.5666 9.408 21.9826 6.856 22.0146 5.912C22.0466 5.384 22.2946 5.12 22.7586 5.12C23.1426 5.12 23.6546 5.504 24.2946 6.272C24.9346 7.04 25.2546 7.76 25.2546 8.432C25.2546 8.72 25.0306 9.808 24.5826 11.696C24.1506 13.568 23.8546 14.88 23.6946 15.632C23.5506 16.368 23.4226 17.032 23.3106 17.624C23.1986 18.2 23.1106 18.656 23.0466 18.992C22.5986 21.04 22.2466 22.216 21.9906 22.52C21.8946 22.632 21.7986 22.688 21.7026 22.688ZM29.8929 9.056C29.8929 8.64 30.0769 8.432 30.4449 8.432C31.8849 8.432 33.4449 8.928 35.1249 9.92C36.8049 10.896 38.2369 11.976 39.4209 13.16C40.0929 13.832 40.4289 14.384 40.4289 14.816C40.4289 15.424 40.1169 16.024 39.4929 16.616C38.8689 17.208 37.7089 18.04 36.0129 19.112C34.3169 20.184 33.0609 20.912 32.2449 21.296C31.4289 21.68 30.6849 21.872 30.0129 21.872C29.3569 21.872 29.0289 21.592 29.0289 21.032C29.0289 20.632 29.4369 20.096 30.2529 19.424C31.0849 18.736 31.9969 18.104 32.9889 17.528C35.6129 15.96 36.9249 15.008 36.9249 14.672C36.9249 14.432 36.3009 13.92 35.0529 13.136C33.8049 12.352 32.7889 11.832 32.0049 11.576C31.6529 11.464 31.2129 11.096 30.6849 10.472C30.1569 9.832 29.8929 9.36 29.8929 9.056ZM56.1939 21.824C56.1939 22.48 55.7379 22.808 54.8259 22.808C53.5779 22.808 52.2659 22.16 50.8899 20.864C49.5299 19.568 48.5619 18.216 47.9859 16.808C47.7299 17.576 47.5539 18.096 47.4579 18.368C47.3619 18.64 47.2179 19.072 47.0259 19.664C46.8339 20.256 46.6819 20.696 46.5699 20.984C46.4739 21.272 46.3619 21.576 46.2339 21.896C45.9939 22.504 45.7619 22.808 45.5379 22.808C45.1699 22.808 44.7219 22.504 44.1939 21.896C43.6819 21.272 43.4259 20.768 43.4259 20.384C43.4259 20 43.6099 19.288 43.9779 18.248C45.0659 15.064 45.6899 12.16 45.8499 9.536C45.5459 9.296 45.2739 8.96 45.0339 8.528C44.7939 8.096 44.6739 7.736 44.6739 7.448C44.6739 6.968 45.2899 6.464 46.5219 5.936C47.7699 5.408 49.2019 5.144 50.8179 5.144C52.4499 5.144 53.8099 5.528 54.8979 6.296C55.9859 7.064 56.5299 8.064 56.5299 9.296C56.5299 10.208 56.2579 11.088 55.7139 11.936C55.1859 12.768 54.6019 13.424 53.9619 13.904C53.3379 14.368 52.7539 14.792 52.2099 15.176C51.6819 15.56 51.4179 15.808 51.4179 15.92C51.4179 16.304 51.5459 16.672 51.8019 17.024C52.0579 17.36 52.4179 17.76 52.8819 18.224C53.3459 18.672 53.7459 19.056 54.0819 19.376C54.4179 19.68 54.6899 19.936 54.8979 20.144C55.1219 20.352 55.3379 20.568 55.5459 20.792C55.9779 21.208 56.1939 21.552 56.1939 21.824ZM52.8339 9.536C52.8339 8.864 52.1779 8.528 50.8659 8.528C50.2419 8.528 49.4979 8.704 48.6339 9.056C49.0339 9.664 49.2339 10.224 49.2339 10.736C49.2339 11.664 49.1059 12.688 48.8499 13.808C49.0259 13.68 49.3539 13.456 49.8339 13.136C50.3139 12.8 50.6819 12.536 50.9379 12.344C51.2099 12.136 51.5139 11.872 51.8499 11.552C52.5059 10.928 52.8339 10.256 52.8339 9.536ZM61.312 22.688C60.992 22.688 60.56 22.36 60.016 21.704C59.472 21.032 59.2 20.544 59.2 20.24C59.2 19.936 59.592 17.712 60.376 13.568C61.176 9.408 61.592 6.856 61.624 5.912C61.656 5.384 61.904 5.12 62.368 5.12C62.752 5.12 63.264 5.504 63.904 6.272C64.544 7.04 64.864 7.76 64.864 8.432C64.864 8.72 64.64 9.808 64.192 11.696C63.76 13.568 63.464 14.88 63.304 15.632C63.16 16.368 63.032 17.032 62.92 17.624C62.808 18.2 62.72 18.656 62.656 18.992C62.208 21.04 61.856 22.216 61.6 22.52C61.504 22.632 61.408 22.688 61.312 22.688ZM78.9823 5C79.4463 5 79.9583 5.24 80.5182 5.72C81.0943 6.2 81.3823 6.592 81.3823 6.896C81.3823 7.904 81.1423 9.656 80.6623 12.152C80.1983 14.632 79.5983 17.008 78.8623 19.28C78.1263 21.552 77.4623 22.688 76.8703 22.688C76.6303 22.688 76.3183 22.56 75.9343 22.304C75.5503 22.032 75.2943 21.72 75.1663 21.368C75.0383 21 74.7903 20.248 74.4223 19.112C73.5743 16.504 72.7743 14.344 72.0223 12.632C71.9103 13.112 71.7583 13.792 71.5663 14.672C71.3903 15.552 71.2463 16.248 71.1343 16.76C71.0223 17.256 70.8863 17.864 70.7263 18.584C70.5663 19.288 70.4223 19.848 70.2943 20.264C70.1823 20.68 70.0543 21.096 69.9103 21.512C69.6543 22.296 69.4143 22.688 69.1903 22.688C68.8703 22.688 68.4543 22.4 67.9423 21.824C67.4303 21.232 67.1743 20.728 67.1743 20.312C67.1743 19.88 67.6303 17.648 68.5423 13.616C69.4703 9.584 69.9743 7.056 70.0543 6.032C70.1023 5.424 70.2863 5.12 70.6063 5.12C70.8783 5.12 71.2223 5.28 71.6383 5.6C72.0703 5.92 72.4383 6.312 72.7422 6.776C73.0623 7.224 73.6303 8.704 74.4463 11.216C75.2623 13.728 75.9103 15.528 76.3903 16.616C77.0143 14.76 77.5903 11.96 78.1183 8.216C78.3263 6.728 78.4623 5.824 78.5262 5.504C78.5903 5.168 78.7423 5 78.9823 5ZM94.7629 13.688C95.4029 13.688 95.8589 13.752 96.1309 13.88C96.4189 13.992 96.5629 14.208 96.5629 14.528C96.5629 14.96 95.8669 15.4 94.4749 15.848C94.5069 17.064 94.5229 18.232 94.5229 19.352C94.5229 20.456 94.4349 21.288 94.2589 21.848C94.0829 22.392 93.8029 22.664 93.4189 22.664C93.0349 22.664 92.7309 22.472 92.5069 22.088C92.2989 21.688 92.1229 21.04 91.9789 20.144C91.8509 19.248 91.7149 18.064 91.5709 16.592C89.9389 16.96 88.7629 17.256 88.0429 17.48C86.7949 20.936 85.9629 22.664 85.5469 22.664C85.2109 22.664 84.7629 22.44 84.2029 21.992C83.6589 21.544 83.3869 21.08 83.3869 20.6C83.3869 20.328 83.6989 19.48 84.3229 18.056C84.0509 17.88 83.8109 17.632 83.6029 17.312C83.4109 16.976 83.3149 16.656 83.3149 16.352C83.3149 15.824 84.1069 15.32 85.6909 14.84C85.8189 14.52 85.9469 14.16 86.0749 13.76C86.2189 13.344 86.5629 12.384 87.1069 10.88C87.6669 9.376 88.1069 8.12 88.4269 7.112C88.5709 6.632 89.0669 6.184 89.9149 5.768C90.7789 5.352 91.4509 5.144 91.9309 5.144C92.4909 5.144 92.9869 5.92 93.4189 7.472C93.8669 9.024 94.1789 11.096 94.3549 13.688H94.7629ZM89.2189 14.096C89.6989 14.032 90.3949 13.952 91.3069 13.856C91.2589 13.392 91.1789 12.6 91.0669 11.48C90.9709 10.36 90.8989 9.552 90.8509 9.056C90.5789 9.952 90.0349 11.632 89.2189 14.096Z" fill="#FFFF00"/>
</g>
<defs>
<clipPath id="clip0_9912_1211">
<rect width="105" height="28" rx="14" fill="white"/>
</clipPath>
</defs>
</svg>
