<svg width="106" height="18" viewBox="0 0 106 18" fill="none" xmlns="http://www.w3.org/2000/svg">
<path d="M1.856 17.544C1.664 17.544 1.408 17.352 1.088 16.968C0.784 16.584 0.632 16.232 0.632 15.912C0.632 15.592 1.104 13.36 2.048 9.216C3.008 5.056 3.496 2.48 3.512 1.488C3.512 1.216 3.544 1.032 3.608 0.935999C3.688 0.823999 3.84 0.767999 4.064 0.767999C4.304 0.767999 4.608 1.016 4.976 1.512C5.36 2.008 5.552 2.544 5.552 3.12C5.552 3.68 4.976 6.304 3.824 10.992C3.712 11.424 3.56 12.048 3.368 12.864C3.176 13.664 3.024 14.28 2.912 14.712C2.8 15.144 2.68 15.616 2.552 16.128C2.28 17.072 2.048 17.544 1.856 17.544ZM12.4297 17.616C12.1897 17.616 11.9177 17.44 11.6137 17.088C11.3097 16.736 11.1577 16.384 11.1577 16.032C11.1577 15.664 11.5977 13.928 12.4777 10.824C13.3577 7.72 13.8617 5.36 13.9897 3.744C13.7817 3.616 13.5977 3.416 13.4377 3.144C13.2777 2.872 13.1977 2.632 13.1977 2.424C13.1977 2.056 13.7417 1.68 14.8297 1.296C15.9177 0.895999 17.1177 0.696 18.4297 0.696C19.7577 0.696 20.9017 1.016 21.8617 1.656C22.8377 2.28 23.3257 3.168 23.3257 4.32C23.3257 5.104 23.1017 5.84 22.6537 6.528C22.2217 7.2 21.6857 7.752 21.0457 8.184C20.4217 8.616 19.7977 9 19.1737 9.336C18.5497 9.672 18.0137 9.952 17.5657 10.176C17.1337 10.384 16.9177 10.536 16.9177 10.632C16.9177 10.984 17.1897 11.44 17.7337 12C18.2937 12.56 18.6857 12.944 18.9097 13.152C19.1337 13.36 19.4297 13.64 19.7977 13.992C20.1657 14.328 20.5097 14.632 20.8297 14.904C21.1657 15.176 21.4297 15.4 21.6217 15.576C21.8297 15.752 22.0377 15.936 22.2457 16.128C22.6457 16.496 22.8457 16.792 22.8457 17.016C22.8457 17.4 22.5817 17.592 22.0537 17.592C21.0937 17.592 19.7257 16.76 17.9497 15.096C16.1737 13.416 15.0857 11.992 14.6857 10.824C13.9337 13.32 13.5017 14.768 13.3897 15.168C13.2777 15.552 13.1497 15.952 13.0057 16.368C12.7497 17.2 12.5577 17.616 12.4297 17.616ZM16.0537 4.392C16.0537 5.432 15.7177 7.152 15.0457 9.552C15.3177 9.344 15.8377 9.04 16.6057 8.64C17.3737 8.224 18.0617 7.848 18.6697 7.512C19.2937 7.16 19.8617 6.696 20.3737 6.12C20.8857 5.544 21.1417 4.944 21.1417 4.32C21.1417 3.328 20.2777 2.832 18.5497 2.832C17.7657 2.832 16.8537 3.032 15.8137 3.432C15.9737 3.784 16.0537 4.104 16.0537 4.392ZM39.4293 4.992C39.7653 4.992 40.0373 5.128 40.2453 5.4C40.4693 5.656 40.5813 5.864 40.5813 6.024C40.5813 6.184 40.5413 6.304 40.4613 6.384C40.3493 6.496 39.8213 6.728 38.8773 7.08C37.9493 7.432 36.5973 8.04 34.8213 8.904C33.0453 9.768 32.1573 10.368 32.1573 10.704C32.1573 10.976 32.7333 11.424 33.8853 12.048C35.0373 12.672 36.1893 13.288 37.3413 13.896C38.5093 14.504 39.0933 14.928 39.0933 15.168C39.0933 15.504 38.7973 15.672 38.2053 15.672C37.6293 15.672 36.6453 15.392 35.2533 14.832C33.8773 14.256 32.5893 13.584 31.3893 12.816C30.1893 12.048 29.5893 11.44 29.5893 10.992C29.5893 10.736 29.6773 10.416 29.8533 10.032C30.0293 9.632 30.2133 9.352 30.4053 9.192C31.2213 8.504 32.7253 7.632 34.9173 6.576C37.1253 5.52 38.6293 4.992 39.4293 4.992ZM47.0388 17.544C46.8468 17.544 46.5908 17.352 46.2708 16.968C45.9668 16.584 45.8148 16.232 45.8148 15.912C45.8148 15.592 46.2868 13.36 47.2308 9.216C48.1908 5.056 48.6788 2.48 48.6948 1.488C48.6948 1.216 48.7268 1.032 48.7908 0.935999C48.8708 0.823999 49.0228 0.767999 49.2468 0.767999C49.4868 0.767999 49.7908 1.016 50.1588 1.512C50.5428 2.008 50.7348 2.544 50.7348 3.12C50.7348 3.68 50.1588 6.304 49.0068 10.992C48.8948 11.424 48.7428 12.048 48.5508 12.864C48.3588 13.664 48.2068 14.28 48.0948 14.712C47.9828 15.144 47.8628 15.616 47.7348 16.128C47.4628 17.072 47.2308 17.544 47.0388 17.544ZM58.3805 5.352C58.3805 5.096 58.5645 4.968 58.9325 4.968C60.0205 4.984 61.3325 5.408 62.8685 6.24C64.4045 7.072 65.6445 7.952 66.5885 8.88C67.1005 9.392 67.3565 9.864 67.3565 10.296C67.3565 10.904 66.1005 11.896 63.5885 13.272C63.3965 13.384 63.2445 13.472 63.1325 13.536C60.5885 14.976 58.8765 15.696 57.9965 15.696C57.5165 15.696 57.2765 15.536 57.2765 15.216C57.2765 14.88 57.9165 14.336 59.1965 13.584C60.4925 12.816 61.7805 12.088 63.0605 11.4C64.3565 10.696 65.0045 10.256 65.0045 10.08C65.0045 9.744 64.3565 9.208 63.0605 8.472C61.7645 7.736 60.7005 7.248 59.8685 7.008C59.5645 6.912 59.2365 6.664 58.8845 6.264C58.5485 5.848 58.3805 5.544 58.3805 5.352ZM85.7536 1.68C85.7856 0.991999 85.9456 0.647999 86.2336 0.647999C86.5376 0.647999 86.8656 0.831999 87.2176 1.2C87.5696 1.568 87.7456 1.896 87.7456 2.184C87.7456 3.496 87.5376 5.36 87.1216 7.776C86.7216 10.192 86.1776 12.432 85.4896 14.496C84.8176 16.56 84.1776 17.592 83.5696 17.592C83.3616 17.592 83.1216 17.488 82.8496 17.28C82.5936 17.072 82.3936 16.816 82.2496 16.512C81.7696 15.392 80.3536 11.84 78.0016 5.856C77.5216 7.712 76.9856 9.816 76.3936 12.168C75.8176 14.504 75.4336 15.992 75.2416 16.632C75.0496 17.272 74.8816 17.592 74.7376 17.592C74.5296 17.592 74.2736 17.416 73.9696 17.064C73.6816 16.696 73.5376 16.32 73.5376 15.936C73.5376 15.552 74.0576 13.304 75.0976 9.192C76.1376 5.064 76.6736 2.488 76.7056 1.464C76.7056 0.952 76.8416 0.696 77.1136 0.696C77.2896 0.696 77.5296 0.848 77.8336 1.152C78.1536 1.44 78.3856 1.76 78.5296 2.112C81.1056 8.8 82.7376 12.896 83.4256 14.4C84.4656 11.648 85.1616 8.36 85.5136 4.536C85.6736 2.776 85.7536 1.824 85.7536 1.68ZM105.644 9.288C105.644 9.592 104.94 9.944 103.532 10.344C103.66 12.008 103.724 13.424 103.724 14.592C103.724 16.608 103.468 17.616 102.956 17.616C102.684 17.616 102.468 17.448 102.308 17.112C102.148 16.776 102.02 16.192 101.924 15.36C101.812 13.824 101.692 12.32 101.564 10.848C100.844 11.04 100.188 11.216 99.5958 11.376C99.0038 11.52 98.1078 11.76 96.9078 12.096C95.4998 15.776 94.6678 17.616 94.4118 17.616C94.1558 17.616 93.8758 17.464 93.5718 17.16C93.2838 16.84 93.1398 16.504 93.1398 16.152C93.1398 15.992 93.5958 14.856 94.5078 12.744H94.3398C94.0198 12.744 93.7318 12.64 93.4758 12.432C93.2358 12.224 93.1158 11.968 93.1158 11.664C93.1158 11.344 93.9078 10.928 95.4918 10.416C95.7478 9.84 95.9558 9.32 96.1158 8.856C96.4838 7.944 96.9958 6.696 97.6518 5.112C98.3078 3.528 98.7238 2.52 98.8998 2.088C99.0758 1.64 99.3798 1.264 99.8118 0.959999C100.26 0.639999 100.692 0.48 101.108 0.48C101.604 0.48 102.044 1.272 102.428 2.856C102.828 4.44 103.148 6.4 103.388 8.736C103.836 8.688 104.228 8.664 104.564 8.664C105.284 8.664 105.644 8.872 105.644 9.288ZM97.7958 9.792C98.9318 9.488 100.132 9.232 101.396 9.024C101.108 6.288 100.828 4.232 100.556 2.856C99.8358 4.504 98.9158 6.816 97.7958 9.792Z" fill="white"/>
</svg>
