<svg width="112" height="24" viewBox="0 0 112 24" fill="none" xmlns="http://www.w3.org/2000/svg">

<path d="M3.416 23.584C2.98933 23.584 2.41333 23.1467 1.688 22.272C0.962667 21.376 0.6 20.7253 0.6 20.32C0.6 19.9147 1.12267 16.9493 2.168 11.424C3.23467 5.87733 3.78933 2.47467 3.832 1.216C3.87467 0.511998 4.20533 0.159998 4.824 0.159998C5.336 0.159998 6.01867 0.671998 6.872 1.696C7.72533 2.72 8.152 3.68 8.152 4.576C8.152 4.96 7.85333 6.41067 7.256 8.928C6.68 11.424 6.28533 13.1733 6.072 14.176C5.88 15.1573 5.70933 16.0427 5.56 16.832C5.41067 17.6 5.29333 18.208 5.208 18.656C4.61067 21.3867 4.14133 22.9547 3.8 23.36C3.672 23.5093 3.544 23.584 3.416 23.584ZM27.019 22.432C27.019 23.3067 26.411 23.744 25.195 23.744C23.531 23.744 21.7817 22.88 19.947 21.152C18.1337 19.424 16.843 17.6213 16.075 15.744C15.7337 16.768 15.499 17.4613 15.371 17.824C15.243 18.1867 15.051 18.7627 14.795 19.552C14.539 20.3413 14.3363 20.928 14.187 21.312C14.059 21.696 13.9097 22.1013 13.739 22.528C13.419 23.3387 13.1097 23.744 12.811 23.744C12.3203 23.744 11.723 23.3387 11.019 22.528C10.3363 21.696 9.995 21.024 9.995 20.512C9.995 20 10.2403 19.0507 10.731 17.664C12.1817 13.4187 13.0137 9.54667 13.227 6.048C12.8217 5.728 12.459 5.28 12.139 4.704C11.819 4.128 11.659 3.648 11.659 3.264C11.659 2.624 12.4803 1.952 14.123 1.248C15.787 0.543999 17.6963 0.191999 19.851 0.191999C22.027 0.191999 23.8403 0.703999 25.291 1.728C26.7417 2.752 27.467 4.08533 27.467 5.728C27.467 6.944 27.1043 8.11733 26.379 9.248C25.675 10.3573 24.8963 11.232 24.043 11.872C23.211 12.4907 22.4323 13.056 21.707 13.568C21.003 14.08 20.651 14.4107 20.651 14.56C20.651 15.072 20.8217 15.5627 21.163 16.032C21.5043 16.48 21.9843 17.0133 22.603 17.632C23.2217 18.2293 23.755 18.7413 24.203 19.168C24.651 19.5733 25.0137 19.9147 25.291 20.192C25.5897 20.4693 25.8777 20.7573 26.155 21.056C26.731 21.6107 27.019 22.0693 27.019 22.432ZM22.539 6.048C22.539 5.152 21.6643 4.704 19.915 4.704C19.083 4.704 18.091 4.93867 16.939 5.408C17.4723 6.21867 17.739 6.96533 17.739 7.648C17.739 8.88533 17.5683 10.2507 17.227 11.744C17.4617 11.5733 17.899 11.2747 18.539 10.848C19.179 10.4 19.6697 10.048 20.011 9.792C20.3737 9.51467 20.779 9.16267 21.227 8.736C22.1017 7.904 22.539 7.008 22.539 6.048ZM42.0138 4.608C42.5471 4.608 43.0271 4.928 43.4538 5.568C43.9018 6.208 44.1258 6.74133 44.1258 7.168C44.1258 7.57333 43.8484 7.91467 43.2938 8.192C41.5871 8.98133 39.5391 10.1227 37.1498 11.616C34.7818 13.1093 33.5978 14.0587 33.5978 14.464C33.5978 14.8693 34.0138 15.4133 34.8458 16.096C35.6991 16.7787 36.6378 17.4293 37.6618 18.048C40.3711 19.7333 41.7258 20.9067 41.7258 21.568C41.7258 22.208 41.2351 22.528 40.2538 22.528C39.2938 22.528 37.8751 22.1013 35.9978 21.248C34.1204 20.3947 32.3818 19.36 30.7818 18.144C29.2031 16.928 28.4138 15.8933 28.4138 15.04C28.4138 14.6133 28.5098 14.0373 28.7018 13.312C28.8938 12.5867 29.1178 12.1173 29.3738 11.904C30.7391 10.6667 32.8724 9.14133 35.7738 7.328C38.6964 5.51467 40.7764 4.608 42.0138 4.608ZM47.6973 23.584C47.2706 23.584 46.6946 23.1467 45.9693 22.272C45.2439 21.376 44.8813 20.7253 44.8813 20.32C44.8813 19.9147 45.4039 16.9493 46.4493 11.424C47.5159 5.87733 48.0706 2.47467 48.1133 1.216C48.1559 0.511998 48.4866 0.159998 49.1053 0.159998C49.6173 0.159998 50.2999 0.671998 51.1533 1.696C52.0066 2.72 52.4333 3.68 52.4333 4.576C52.4333 4.96 52.1346 6.41067 51.5373 8.928C50.9613 11.424 50.5666 13.1733 50.3533 14.176C50.1613 15.1573 49.9906 16.0427 49.8413 16.832C49.6919 17.6 49.5746 18.208 49.4893 18.656C48.8919 21.3867 48.4226 22.9547 48.0813 23.36C47.9533 23.5093 47.8253 23.584 47.6973 23.584ZM57.2843 5.408C57.2843 4.85333 57.5296 4.576 58.0203 4.576C59.9403 4.576 62.0203 5.23733 64.2603 6.56C66.5003 7.86133 68.4096 9.30133 69.9883 10.88C70.8843 11.776 71.3323 12.512 71.3323 13.088C71.3323 13.8987 70.9163 14.6987 70.0843 15.488C69.2523 16.2773 67.7056 17.3867 65.4443 18.816C63.1829 20.2453 61.5083 21.216 60.4203 21.728C59.3323 22.24 58.3403 22.496 57.4443 22.496C56.5696 22.496 56.1323 22.1227 56.1323 21.376C56.1323 20.8427 56.6763 20.128 57.7643 19.232C58.8736 18.3147 60.0896 17.472 61.4123 16.704C64.9109 14.6133 66.6603 13.344 66.6603 12.896C66.6603 12.576 65.8283 11.8933 64.1643 10.848C62.5003 9.80267 61.1456 9.10933 60.1003 8.768C59.6309 8.61867 59.0443 8.128 58.3403 7.296C57.6363 6.44267 57.2843 5.81333 57.2843 5.408ZM89.643 -1.90735e-06C90.2617 -1.90735e-06 90.9443 0.319998 91.691 0.959999C92.459 1.6 92.843 2.12267 92.843 2.528C92.843 3.872 92.523 6.208 91.883 9.536C91.2643 12.8427 90.4643 16.0107 89.483 19.04C88.5017 22.0693 87.6163 23.584 86.827 23.584C86.507 23.584 86.091 23.4133 85.579 23.072C85.067 22.7093 84.7257 22.2933 84.555 21.824C84.3843 21.3333 84.0537 20.3307 83.563 18.816C82.4323 15.3387 81.3657 12.4587 80.363 10.176C80.2137 10.816 80.011 11.7227 79.755 12.896C79.5203 14.0693 79.3283 14.9973 79.179 15.68C79.0297 16.3413 78.8483 17.152 78.635 18.112C78.4217 19.0507 78.2297 19.7973 78.059 20.352C77.9097 20.9067 77.739 21.4613 77.547 22.016C77.2057 23.0613 76.8857 23.584 76.587 23.584C76.1603 23.584 75.6057 23.2 74.923 22.432C74.2403 21.6427 73.899 20.9707 73.899 20.416C73.899 19.84 74.507 16.864 75.723 11.488C76.9603 6.112 77.6323 2.74133 77.739 1.376C77.803 0.565332 78.0483 0.159998 78.475 0.159998C78.8377 0.159998 79.2963 0.373332 79.851 0.799999C80.427 1.22667 80.9177 1.74933 81.323 2.368C81.7497 2.96533 82.507 4.93867 83.595 8.288C84.683 11.6373 85.547 14.0373 86.187 15.488C87.019 13.0133 87.787 9.28 88.491 4.288C88.7683 2.304 88.9497 1.09867 89.035 0.671999C89.1203 0.223998 89.323 -1.90735e-06 89.643 -1.90735e-06ZM109.351 11.584C110.204 11.584 110.812 11.6693 111.175 11.84C111.559 11.9893 111.751 12.2773 111.751 12.704C111.751 13.28 110.823 13.8667 108.967 14.464C109.009 16.0853 109.031 17.6427 109.031 19.136C109.031 20.608 108.913 21.7173 108.679 22.464C108.444 23.1893 108.071 23.552 107.559 23.552C107.047 23.552 106.641 23.296 106.343 22.784C106.065 22.2507 105.831 21.3867 105.639 20.192C105.468 18.9973 105.287 17.4187 105.095 15.456C102.919 15.9467 101.351 16.3413 100.391 16.64C98.7265 21.248 97.6172 23.552 97.0625 23.552C96.6145 23.552 96.0172 23.2533 95.2705 22.656C94.5452 22.0587 94.1825 21.44 94.1825 20.8C94.1825 20.4373 94.5985 19.3067 95.4305 17.408C95.0678 17.1733 94.7478 16.8427 94.4705 16.416C94.2145 15.968 94.0865 15.5413 94.0865 15.136C94.0865 14.432 95.1425 13.76 97.2545 13.12C97.4252 12.6933 97.5958 12.2133 97.7665 11.68C97.9585 11.1253 98.4172 9.84533 99.1425 7.84C99.8892 5.83467 100.476 4.16 100.903 2.816C101.095 2.176 101.756 1.57867 102.887 1.024C104.039 0.469332 104.935 0.191999 105.575 0.191999C106.321 0.191999 106.983 1.22667 107.559 3.296C108.156 5.36533 108.572 8.128 108.807 11.584H109.351ZM101.959 12.128C102.599 12.0427 103.527 11.936 104.743 11.808C104.679 11.1893 104.572 10.1333 104.423 8.64C104.295 7.14667 104.199 6.06933 104.135 5.408C103.772 6.60267 103.047 8.84267 101.959 12.128Z" fill="white"/>
</svg>
