<svg width="105" height="28" viewBox="0 0 105 28" fill="none" xmlns="http://www.w3.org/2000/svg">
<g clip-path="url(#clip0_9919_1231)">
<rect width="105" height="28" rx="14" fill="#88BB44"/>
<path d="M9.312 22.688C8.992 22.688 8.56 22.36 8.016 21.704C7.472 21.032 7.2 20.544 7.2 20.24C7.2 19.936 7.592 17.712 8.376 13.568C9.176 9.408 9.592 6.856 9.624 5.912C9.656 5.384 9.904 5.12 10.368 5.12C10.752 5.12 11.264 5.504 11.904 6.272C12.544 7.04 12.864 7.76 12.864 8.432C12.864 8.72 12.64 9.808 12.192 11.696C11.76 13.568 11.464 14.88 11.304 15.632C11.16 16.368 11.032 17.032 10.92 17.624C10.808 18.2 10.72 18.656 10.656 18.992C10.208 21.04 9.856 22.216 9.6 22.52C9.504 22.632 9.408 22.688 9.312 22.688ZM28.0143 21.824C28.0143 22.48 27.5583 22.808 26.6463 22.808C25.3983 22.808 24.0863 22.16 22.7103 20.864C21.3503 19.568 20.3823 18.216 19.8063 16.808C19.5503 17.576 19.3743 18.096 19.2783 18.368C19.1823 18.64 19.0383 19.072 18.8463 19.664C18.6543 20.256 18.5023 20.696 18.3903 20.984C18.2943 21.272 18.1823 21.576 18.0543 21.896C17.8143 22.504 17.5823 22.808 17.3583 22.808C16.9903 22.808 16.5423 22.504 16.0143 21.896C15.5023 21.272 15.2463 20.768 15.2463 20.384C15.2463 20 15.4303 19.288 15.7983 18.248C16.8863 15.064 17.5103 12.16 17.6703 9.536C17.3663 9.296 17.0943 8.96 16.8543 8.528C16.6143 8.096 16.4943 7.736 16.4943 7.448C16.4943 6.968 17.1103 6.464 18.3423 5.936C19.5903 5.408 21.0223 5.144 22.6383 5.144C24.2703 5.144 25.6303 5.528 26.7183 6.296C27.8063 7.064 28.3503 8.064 28.3503 9.296C28.3503 10.208 28.0783 11.088 27.5343 11.936C27.0063 12.768 26.4223 13.424 25.7823 13.904C25.1583 14.368 24.5743 14.792 24.0303 15.176C23.5023 15.56 23.2383 15.808 23.2383 15.92C23.2383 16.304 23.3663 16.672 23.6223 17.024C23.8783 17.36 24.2383 17.76 24.7023 18.224C25.1663 18.672 25.5663 19.056 25.9023 19.376C26.2383 19.68 26.5103 19.936 26.7183 20.144C26.9423 20.352 27.1583 20.568 27.3663 20.792C27.7983 21.208 28.0143 21.552 28.0143 21.824ZM24.6543 9.536C24.6543 8.864 23.9983 8.528 22.6863 8.528C22.0623 8.528 21.3183 8.704 20.4543 9.056C20.8543 9.664 21.0543 10.224 21.0543 10.736C21.0543 11.664 20.9263 12.688 20.6703 13.808C20.8463 13.68 21.1743 13.456 21.6543 13.136C22.1343 12.8 22.5023 12.536 22.7583 12.344C23.0303 12.136 23.3343 11.872 23.6703 11.552C24.3263 10.928 24.6543 10.256 24.6543 9.536ZM40.2603 8.456C40.6603 8.456 41.0203 8.696 41.3403 9.176C41.6763 9.656 41.8443 10.056 41.8443 10.376C41.8443 10.68 41.6363 10.936 41.2203 11.144C39.9403 11.736 38.4043 12.592 36.6123 13.712C34.8363 14.832 33.9483 15.544 33.9483 15.848C33.9483 16.152 34.2603 16.56 34.8843 17.072C35.5243 17.584 36.2283 18.072 36.9963 18.536C39.0283 19.8 40.0443 20.68 40.0443 21.176C40.0443 21.656 39.6763 21.896 38.9403 21.896C38.2203 21.896 37.1563 21.576 35.7483 20.936C34.3403 20.296 33.0363 19.52 31.8363 18.608C30.6523 17.696 30.0603 16.92 30.0603 16.28C30.0603 15.96 30.1323 15.528 30.2763 14.984C30.4203 14.44 30.5883 14.088 30.7803 13.928C31.8043 13 33.4043 11.856 35.5803 10.496C37.7723 9.136 39.3323 8.456 40.2603 8.456ZM45.5229 22.688C45.2029 22.688 44.7709 22.36 44.2269 21.704C43.6829 21.032 43.4109 20.544 43.4109 20.24C43.4109 19.936 43.8029 17.712 44.5869 13.568C45.3869 9.408 45.8029 6.856 45.8349 5.912C45.8669 5.384 46.1149 5.12 46.5789 5.12C46.9629 5.12 47.4749 5.504 48.1149 6.272C48.7549 7.04 49.0749 7.76 49.0749 8.432C49.0749 8.72 48.8509 9.808 48.4029 11.696C47.9709 13.568 47.6749 14.88 47.5149 15.632C47.3709 16.368 47.2429 17.032 47.1309 17.624C47.0189 18.2 46.9309 18.656 46.8669 18.992C46.4189 21.04 46.0669 22.216 45.8109 22.52C45.7149 22.632 45.6189 22.688 45.5229 22.688ZM53.7132 9.056C53.7132 8.64 53.8972 8.432 54.2652 8.432C55.7052 8.432 57.2652 8.928 58.9452 9.92C60.6252 10.896 62.0572 11.976 63.2412 13.16C63.9132 13.832 64.2492 14.384 64.2492 14.816C64.2492 15.424 63.9372 16.024 63.3132 16.616C62.6892 17.208 61.5292 18.04 59.8332 19.112C58.1372 20.184 56.8812 20.912 56.0652 21.296C55.2492 21.68 54.5052 21.872 53.8332 21.872C53.1772 21.872 52.8492 21.592 52.8492 21.032C52.8492 20.632 53.2572 20.096 54.0732 19.424C54.9052 18.736 55.8172 18.104 56.8092 17.528C59.4332 15.96 60.7452 15.008 60.7452 14.672C60.7452 14.432 60.1212 13.92 58.8732 13.136C57.6252 12.352 56.6092 11.832 55.8252 11.576C55.4732 11.464 55.0332 11.096 54.5052 10.472C53.9772 9.832 53.7132 9.36 53.7132 9.056ZM78.9823 5C79.4463 5 79.9583 5.24 80.5182 5.72C81.0943 6.2 81.3823 6.592 81.3823 6.896C81.3823 7.904 81.1423 9.656 80.6623 12.152C80.1983 14.632 79.5983 17.008 78.8623 19.28C78.1263 21.552 77.4623 22.688 76.8703 22.688C76.6303 22.688 76.3183 22.56 75.9343 22.304C75.5503 22.032 75.2943 21.72 75.1663 21.368C75.0383 21 74.7903 20.248 74.4223 19.112C73.5743 16.504 72.7743 14.344 72.0223 12.632C71.9103 13.112 71.7583 13.792 71.5663 14.672C71.3903 15.552 71.2463 16.248 71.1343 16.76C71.0223 17.256 70.8863 17.864 70.7263 18.584C70.5663 19.288 70.4223 19.848 70.2943 20.264C70.1823 20.68 70.0543 21.096 69.9103 21.512C69.6543 22.296 69.4143 22.688 69.1903 22.688C68.8703 22.688 68.4543 22.4 67.9423 21.824C67.4303 21.232 67.1743 20.728 67.1743 20.312C67.1743 19.88 67.6303 17.648 68.5423 13.616C69.4703 9.584 69.9743 7.056 70.0543 6.032C70.1023 5.424 70.2863 5.12 70.6063 5.12C70.8783 5.12 71.2223 5.28 71.6383 5.6C72.0703 5.92 72.4383 6.312 72.7422 6.776C73.0623 7.224 73.6303 8.704 74.4463 11.216C75.2623 13.728 75.9103 15.528 76.3903 16.616C77.0143 14.76 77.5903 11.96 78.1183 8.216C78.3263 6.728 78.4623 5.824 78.5262 5.504C78.5903 5.168 78.7423 5 78.9823 5ZM94.7629 13.688C95.4029 13.688 95.8589 13.752 96.1309 13.88C96.4189 13.992 96.5629 14.208 96.5629 14.528C96.5629 14.96 95.8669 15.4 94.4749 15.848C94.5069 17.064 94.5229 18.232 94.5229 19.352C94.5229 20.456 94.4349 21.288 94.2589 21.848C94.0829 22.392 93.8029 22.664 93.4189 22.664C93.0349 22.664 92.7309 22.472 92.5069 22.088C92.2989 21.688 92.1229 21.04 91.9789 20.144C91.8509 19.248 91.7149 18.064 91.5709 16.592C89.9389 16.96 88.7629 17.256 88.0429 17.48C86.7949 20.936 85.9629 22.664 85.5469 22.664C85.2109 22.664 84.7629 22.44 84.2029 21.992C83.6589 21.544 83.3869 21.08 83.3869 20.6C83.3869 20.328 83.6989 19.48 84.3229 18.056C84.0509 17.88 83.8109 17.632 83.6029 17.312C83.4109 16.976 83.3149 16.656 83.3149 16.352C83.3149 15.824 84.1069 15.32 85.6909 14.84C85.8189 14.52 85.9469 14.16 86.0749 13.76C86.2189 13.344 86.5629 12.384 87.1069 10.88C87.6669 9.376 88.1069 8.12 88.4269 7.112C88.5709 6.632 89.0669 6.184 89.9149 5.768C90.7789 5.352 91.4509 5.144 91.9309 5.144C92.4909 5.144 92.9869 5.92 93.4189 7.472C93.8669 9.024 94.1789 11.096 94.3549 13.688H94.7629ZM89.2189 14.096C89.6989 14.032 90.3949 13.952 91.3069 13.856C91.2589 13.392 91.1789 12.6 91.0669 11.48C90.9709 10.36 90.8989 9.552 90.8509 9.056C90.5789 9.952 90.0349 11.632 89.2189 14.096Z" fill="#FFFF00"/>
</g>
<defs>
<clipPath id="clip0_9919_1231">
<rect width="105" height="28" rx="14" fill="white"/>
</clipPath>
</defs>
</svg>
